<?xml version="1.0" standalone="no"?>
<!DOCTYPE svg PUBLIC "-//W3C//DTD SVG 20010904//EN"
 "http://www.w3.org/TR/2001/REC-SVG-20010904/DTD/svg10.dtd">
<svg version="1.0" xmlns="http://www.w3.org/2000/svg"
 width="1104.000000pt" height="1280.000000pt" viewBox="0 0 1104.000000 1280.000000"
 preserveAspectRatio="xMidYMid meet">
<g transform="translate(0.000000,1280.000000) scale(0.100000,-0.100000)"
fill="#000000" stroke="none">
<path d="M4885 12220 c-49 -4 -241 -19 -425 -34 -659 -52 -1017 -112 -1330
-223 -234 -84 -311 -126 -375 -210 -41 -54 -54 -126 -31 -169 8 -16 44 -62 80
-103 65 -73 91 -127 84 -174 -3 -20 -9 -22 -58 -21 -30 0 -113 13 -185 28
-124 27 -139 28 -330 23 -303 -7 -491 -50 -750 -172 -221 -104 -469 -306 -578
-473 -127 -192 -180 -322 -203 -496 -29 -216 9 -535 88 -736 129 -331 322
-535 743 -787 458 -275 537 -337 600 -467 37 -78 61 -181 51 -220 -10 -39
-120 -171 -189 -226 -34 -27 -118 -91 -186 -141 -146 -108 -149 -113 -184
-309 -21 -118 -31 -150 -82 -255 -51 -107 -110 -256 -181 -455 -44 -125 -58
-238 -58 -470 -1 -200 1 -228 32 -405 37 -210 48 -241 171 -491 94 -191 160
-283 312 -429 223 -216 305 -278 542 -414 239 -137 390 -213 462 -234 33 -10
83 -27 110 -39 28 -12 141 -52 252 -90 168 -57 252 -78 500 -128 392 -78 696
-124 941 -143 29 -2 57 -8 62 -13 5 -5 -5 -37 -25 -78 -24 -47 -35 -82 -35
-113 0 -75 37 -199 78 -260 33 -50 37 -63 36 -117 0 -67 -20 -114 -117 -276
-91 -151 -207 -250 -605 -512 -37 -25 -116 -57 -227 -94 -318 -106 -631 -253
-763 -358 -153 -123 -217 -245 -216 -416 0 -52 7 -108 18 -145 25 -83 109
-245 155 -297 21 -23 54 -67 73 -96 62 -93 150 -153 393 -269 158 -75 306
-135 365 -148 19 -4 89 -22 155 -41 137 -38 318 -74 520 -103 587 -85 1207
-87 1850 -6 440 56 849 142 979 206 32 15 75 32 95 35 77 15 374 157 457 220
154 117 233 208 326 379 125 230 147 348 94 512 -46 141 -117 229 -291 355
-124 90 -154 107 -313 172 -146 60 -320 110 -458 131 -129 20 -174 36 -228 78
-21 17 -76 50 -121 72 -147 74 -266 183 -368 335 -145 218 -154 265 -82 415
50 103 68 195 54 272 -10 54 -23 80 -61 120 -55 58 -9 81 190 93 195 13 286
24 531 66 206 35 472 92 651 141 221 60 789 275 890 337 80 49 396 288 498
375 108 94 241 247 346 401 128 187 146 221 214 415 71 201 92 308 99 510 7
180 -4 273 -56 485 -21 85 -42 176 -45 202 -4 25 -25 81 -46 124 -22 43 -40
84 -40 91 0 31 -74 192 -114 248 l-43 60 -11 146 c-6 93 -16 157 -25 175 -27
50 -108 119 -242 207 -72 46 -145 100 -162 120 -65 75 -102 277 -69 386 46
156 163 260 586 521 192 119 277 179 379 270 206 183 351 415 416 665 27 105
50 352 40 431 -20 159 -72 311 -156 457 -48 81 -200 265 -263 316 -163 132
-488 306 -701 375 -122 39 -209 54 -385 67 -140 10 -180 10 -308 -5 -81 -10
-182 -27 -225 -38 -43 -11 -81 -17 -85 -14 -11 12 38 92 94 155 62 68 84 113
84 171 0 93 -164 206 -420 288 -242 78 -739 169 -1075 197 -105 8 -199 18
-210 20 -12 2 -126 11 -255 20 -129 8 -241 18 -248 20 -24 9 -1363 13 -1457 5z
m4407 -1324 c88 -21 326 -127 402 -178 91 -63 153 -133 197 -223 75 -156 88
-311 45 -505 -40 -181 -129 -334 -281 -485 -85 -86 -147 -131 -514 -378 -105
-71 -228 -175 -315 -268 -84 -89 -167 -252 -192 -379 -23 -117 -15 -265 21
-380 34 -108 40 -140 27 -140 -14 0 -391 212 -460 259 -31 21 -145 92 -252
158 -347 214 -438 286 -549 437 -127 172 -194 303 -235 461 -38 149 -46 213
-46 391 l0 162 44 145 c51 168 84 254 118 303 37 56 220 188 353 255 191 95
682 276 885 326 229 55 291 63 495 59 131 -3 211 -9 257 -20z m-6807 -76 c139
-13 210 -27 465 -89 311 -75 406 -115 615 -254 157 -105 188 -132 302 -257
193 -211 230 -304 240 -595 12 -332 -49 -531 -238 -785 -85 -113 -276 -293
-454 -424 -88 -65 -212 -160 -275 -211 -131 -104 -178 -135 -305 -194 -49 -23
-124 -62 -167 -86 -102 -59 -113 -59 -104 3 4 26 11 104 17 173 9 109 8 139
-6 210 -32 156 -140 348 -247 439 -83 70 -197 146 -266 178 -51 23 -155 81
-375 210 -146 86 -250 176 -359 312 -70 88 -141 265 -172 430 -55 286 104 561
448 775 219 136 541 196 881 165z"/>
</g>
</svg>
