<?xml version="1.0" encoding="utf-8"?>
<!-- Generator: Adobe Illustrator 23.0.1, SVG Export Plug-In . SVG Version: 6.00 Build 0)  -->
<svg version="1.1" id="Layer_1" xmlns="http://www.w3.org/2000/svg" xmlns:xlink="http://www.w3.org/1999/xlink" x="0px" y="0px"
	 viewBox="0 0 400 400" style="enable-background:new 0 0 400 400;" xml:space="preserve">
<style type="text/css">
	.st0{fill:#5D4038;}
	.st1{fill:#49322E;}
</style>
<title></title>
<g>
	<g id="colour">
		<polygon class="st0" points="186.7,246.7 153.3,213.3 393.3,6.7 		"/>
		<polygon class="st1" points="293.8,92.4 172.8,232.8 186.7,246.7 393.3,6.7 		"/>
		<path class="st0" d="M5.1,360l33.3,33.3l16.1-16.1c2.6-2.6,4.8-5.7,6.4-9c40.2-81.6,94.3-84.4,120.6-104
			c5.8-4.4,6.9-12.7,2.5-18.5c-0.4-0.5-0.8-1-1.2-1.4l-27.9-27.9c-8-8-16.3-8.1-21.5-3.1c-19.6,18.6-49.4,71.5-86.9,102.6
			c-6,5.2-12.9,9.2-20.5,11.5C11.6,331.5,5.1,350.2,5.1,360z"/>
		<path class="st1" d="M182.7,244.3L169.4,231c5.2,5.1,5.3,13.5,0.1,18.7c-0.4,0.4-0.9,0.9-1.4,1.2c-26.3,19.6-80.5,22.4-120.6,104
			c-1.6,3.3-3.8,6.4-6.4,9L25.1,380l13.3,13.3l16.1-16.1c2.6-2.6,4.8-5.7,6.4-9c40.2-81.6,94.3-84.4,120.6-104
			c5.8-4.4,6.9-12.7,2.5-18.5C183.6,245.2,183.2,244.8,182.7,244.3z"/>
	</g>
	<g>
		<path d="M398,2c-2.5-2.5-6.4-2.6-9.1-0.3L152.3,205.4c-7.3-3.7-16.1-2.5-22,3.1c-10.2,10.9-19.6,22.5-28.1,34.8
			c-16.1,21.8-36.2,49-58.4,67.5c-5.2,4.6-11.4,8.1-18,10.2C8.2,326,0,347.2,0,360c0,1.8,0.7,3.5,2,4.7L35.3,398
			c2.6,2.6,6.8,2.6,9.4,0c0,0,0,0,0,0l16-16.1c3.1-3.2,5.7-6.8,7.7-10.8c28.8-58.5,64-74.6,92.4-87.5c9.2-3.8,18-8.5,26.3-14.1
			c4.6-3.4,7.4-8.6,7.8-14.3c0.1-2.4-0.1-4.7-0.8-7L398.4,11C400.7,8.4,400.5,4.4,398,2z M225.5,160h27l-66.2,76.9l-23.2-23.2
			L225.5,160z M56.5,365.3c-1.3,2.7-3,5.1-5.1,7.3L40,383.9l-26.5-26.5c1-8.2,6.3-20.9,15.9-23.5c8.5-2.6,16.3-7,22.9-12.8
			c10-8.5,19.2-17.7,27.7-27.7v33.9C70.9,339.1,63,351.8,56.5,365.3z M179.1,258.9c-7.5,5-15.5,9.2-23.9,12.7
			c-23.1,9.3-44.1,23-61.9,40.4v-34.7c7-8.9,13.6-17.8,19.6-26c8-11.7,16.9-22.7,26.6-33.1c4.3-4.1,10,0.7,12.2,3l27.9,27.9
			c1.4,1.4,2.1,3.3,2,5.3C181.5,256.2,180.6,257.8,179.1,258.9L179.1,258.9z M264,146.7h-23L330,70L264,146.7z"/>
	</g>
</g>
</svg>
