<?xml version="1.0" standalone="no"?>
<!DOCTYPE svg PUBLIC "-//W3C//DTD SVG 20010904//EN"
 "http://www.w3.org/TR/2001/REC-SVG-20010904/DTD/svg10.dtd">
<svg version="1.0" xmlns="http://www.w3.org/2000/svg"
 width="1280.000000pt" height="1207.000000pt" viewBox="0 0 1280.000000 1207.000000"
 preserveAspectRatio="xMidYMid meet">
<g transform="translate(0.000000,1207.000000) scale(0.100000,-0.100000)"
fill="#000000" stroke="none">
<path d="M7930 12045 c-80 -12 -176 -30 -215 -40 -357 -91 -688 -291 -970
-587 -394 -415 -801 -1011 -1259 -1848 -246 -448 -637 -1257 -912 -1885 -534
-1221 -1147 -2832 -1623 -4267 -45 -135 -88 -251 -94 -256 -7 -5 -124 -12
-262 -15 -1152 -29 -1859 -249 -2310 -719 -156 -162 -224 -275 -267 -441 l-22
-89 22 -82 c19 -75 21 -99 15 -227 -11 -271 46 -438 215 -620 227 -245 542
-417 1047 -572 628 -194 1299 -298 2170 -338 287 -13 1322 -7 1770 10 342 13
780 28 1255 42 506 15 1845 6 2255 -15 534 -28 1062 -67 1164 -87 39 -8 80 -8
145 0 50 6 161 16 246 22 662 46 1172 169 1515 366 354 203 621 520 810 963
20 47 54 107 75 135 42 55 70 108 90 172 11 36 11 50 0 84 -48 145 -174 225
-437 275 -102 20 -102 20 -268 -53 -202 -89 -380 -117 -750 -117 -342 0 -645
26 -1139 100 -425 63 -955 159 -973 177 -6 7 -23 117 -37 247 -14 129 -48 444
-76 700 -28 256 -64 587 -80 735 -16 149 -52 478 -80 733 -27 254 -73 670
-100 925 -28 254 -64 584 -80 732 -16 149 -52 479 -80 735 -28 256 -64 587
-80 735 -16 149 -52 479 -80 735 -28 256 -64 587 -80 735 -16 149 -48 436 -70
639 -22 203 -40 381 -40 396 0 38 21 41 282 41 458 1 641 -60 973 -320 380
-298 595 -404 1068 -526 72 -19 132 -33 133 -32 2 1 -43 83 -100 182 -56 99
-180 326 -276 505 -204 383 -283 526 -398 714 -262 428 -581 792 -920 1049
-181 137 -425 219 -774 262 -160 19 -219 18 -398 -10z"/>
</g>
</svg>
